<svg width="128" height="128" viewBox="0 0 128 128" fill="none" xmlns="http://www.w3.org/2000/svg">
  <rect width="128" height="128" rx="64" fill="#052E2B"/>
  <path d="M64 12L109.033 38V90L64 116L18.9673 90V38L64 12Z" fill="#0F766E"/>
  <path d="M64 20L102.105 42V86L64 108L25.8949 86V42L64 20Z" stroke="#34D399" stroke-width="8" stroke-linejoin="round"/>
  <path d="M65.2235 35.9386C65.6121 34.6871 67.3879 34.6871 67.7765 35.9386L73.623 54.7667C73.7544 55.1897 74.0853 55.5206 74.5083 55.652L93.3364 61.4985C94.5879 61.8871 94.5879 63.6629 93.3364 64.0515L74.5083 69.898C74.0853 70.0294 73.7544 70.3603 73.623 70.7833L67.7765 89.6114C67.3879 90.8629 65.6121 90.8629 65.2235 89.6114L59.377 70.7833C59.2456 70.3603 58.9147 70.0294 58.4917 69.898L39.6636 64.0515C38.4121 63.6629 38.4121 61.8871 39.6636 61.4985L58.4917 55.652C58.9147 55.5206 59.2456 55.1897 59.377 54.7667L65.2235 35.9386Z" fill="#A7F3D0"/>
  <path d="M40.2707 28.6007C40.5908 27.5684 42.0342 27.5684 42.3543 28.6007L44.957 36.9945C45.0674 37.3505 45.3469 37.63 45.7029 37.7404L54.0967 40.3431C55.129 40.6632 55.129 42.1066 54.0967 42.4267L45.7029 45.0294C45.3469 45.1398 45.0674 45.4193 44.957 45.7753L42.3543 54.1691C42.0342 55.2014 40.5908 55.2014 40.2707 54.1691L37.668 45.7753C37.5576 45.4193 37.2781 45.1398 36.9221 45.0294L28.5283 42.4267C27.496 42.1066 27.496 40.6632 28.5283 40.3431L36.9221 37.7404C37.2781 37.63 37.5576 37.3505 37.668 36.9945L40.2707 28.6007Z" fill="#22D3EE"/>
  <path d="M88.1457 82.6007C88.4658 81.5684 89.9092 81.5684 90.2293 82.6007L91.8945 87.9716C92.0049 88.3276 92.2844 88.6071 92.6404 88.7175L98.0113 90.3827C99.0436 90.7028 99.0436 92.1462 98.0113 92.4663L92.6404 94.1315C92.2844 94.2419 92.0049 94.5214 91.8945 94.8774L90.2293 100.248C89.9092 101.281 88.4658 101.281 88.1457 100.248L86.4805 94.8774C86.3701 94.5214 86.0906 94.2419 85.7346 94.1315L80.3637 92.4663C79.3314 92.1462 79.3314 90.7028 80.3637 90.3827L85.7346 88.7175C86.0906 88.6071 86.3701 88.3276 86.4805 87.9716L88.1457 82.6007Z" fill="#34D399"/>
</svg>
